# xmcd
#
# Track frame offsets:
#	150
#	21841
#	42695
#	64025
#	112114
#	130560
#	167726
#	188188
#	207009
#	227011
#	243810
#	262043
#	283077
#	298087
#	313851
#	329917
#	340897
#
# Disc length: 4764 seconds
#
# Revision: 0
# Processed by: cddbd v1.4PL0 Copyright (c) Steve Scherf et al.
# Submitted via: audiograbber 1.81.01
#
DISCID=0c129a11
DTITLE=Various Artist - Tractor Blues
DYEAR=1900
DGENRE=
TTITLE0=BB King - The Thrill is Gone
TTITLE1=Allman Brothers - Done Somebody Wrong
TTITLE2=Allman Brothers - Ramblin Man
TTITLE3=Allman Brothers - Stormy Night
TTITLE4=BB King and Bonnie Raitt - right Place Wrong Place
TTITLE5=Unknown
TTITLE6=Nitty Gritty Dirt Band - Up on Cripple Creek
TTITLE7=Robert Cray - Smokin Gun
TTITLE8=Rolling Stones - Beast of Burdon
TTITLE9=Rolling Stones - Tumblin Dice
TTITLE10=Stevie Ray - Cold Shot
TTITLE11=Stevie Ray - The Sky is Cryin
TTITLE12=Stevie Ray - Guitar Boogie
TTITLE13=Stevie Ray - Pride and Joy
TTITLE14=Stevie Ray - Taxman
TTITLE15=Stevie Ray - The House is Rockin
TTITLE16=BB King and Stevie Ray - Blues at Sunrise
EXTD=
EXTT0=
EXTT1=
EXTT2=
EXTT3=
EXTT4=
EXTT5=
EXTT6=
EXTT7=
EXTT8=
EXTT9=
EXTT10=
EXTT11=
EXTT12=
EXTT13=
EXTT14=
EXTT15=
EXTT16=
PLAYORDER=
